<svg id="visual" viewBox="0 0 900 450" width="900" height="450" xmlns="http://www.w3.org/2000/svg" xmlns:xlink="http://www.w3.org/1999/xlink" version="1.1"><rect x="0" y="0" width="900" height="450" fill="#301755"></rect><defs><linearGradient id="grad1_0" x1="50%" y1="100%" x2="100%" y2="0%"><stop offset="10%" stop-color="#678caa" stop-opacity="1"></stop><stop offset="90%" stop-color="#678caa" stop-opacity="1"></stop></linearGradient></defs><defs><linearGradient id="grad1_1" x1="50%" y1="100%" x2="100%" y2="0%"><stop offset="10%" stop-color="#678caa" stop-opacity="1"></stop><stop offset="90%" stop-color="#476693" stop-opacity="1"></stop></linearGradient></defs><defs><linearGradient id="grad1_2" x1="50%" y1="100%" x2="100%" y2="0%"><stop offset="10%" stop-color="#364077" stop-opacity="1"></stop><stop offset="90%" stop-color="#476693" stop-opacity="1"></stop></linearGradient></defs><defs><linearGradient id="grad1_3" x1="50%" y1="100%" x2="100%" y2="0%"><stop offset="10%" stop-color="#364077" stop-opacity="1"></stop><stop offset="90%" stop-color="#301755" stop-opacity="1"></stop></linearGradient></defs><defs><linearGradient id="grad2_0" x1="0%" y1="100%" x2="50%" y2="0%"><stop offset="10%" stop-color="#678caa" stop-opacity="1"></stop><stop offset="90%" stop-color="#678caa" stop-opacity="1"></stop></linearGradient></defs><defs><linearGradient id="grad2_1" x1="0%" y1="100%" x2="50%" y2="0%"><stop offset="10%" stop-color="#476693" stop-opacity="1"></stop><stop offset="90%" stop-color="#678caa" stop-opacity="1"></stop></linearGradient></defs><defs><linearGradient id="grad2_2" x1="0%" y1="100%" x2="50%" y2="0%"><stop offset="10%" stop-color="#476693" stop-opacity="1"></stop><stop offset="90%" stop-color="#364077" stop-opacity="1"></stop></linearGradient></defs><defs><linearGradient id="grad2_3" x1="0%" y1="100%" x2="50%" y2="0%"><stop offset="10%" stop-color="#301755" stop-opacity="1"></stop><stop offset="90%" stop-color="#364077" stop-opacity="1"></stop></linearGradient></defs><g transform="translate(900, 450)"><path d="M-382.5 0C-364.1 -61.7 -345.7 -123.3 -316.1 -182.5C-286.5 -241.7 -245.8 -298.3 -191.3 -331.3C-136.7 -364.2 -68.4 -373.3 0 -382.5L0 0Z" fill="#322c67"></path><path d="M-286.9 0C-273.1 -46.2 -259.3 -92.5 -237.1 -136.9C-214.9 -181.3 -184.3 -223.8 -143.4 -248.4C-102.5 -273.1 -51.3 -280 0 -286.9L0 0Z" fill="#3d5386"></path><path d="M-191.2 0C-182 -30.8 -172.8 -61.7 -158 -91.3C-143.3 -120.8 -122.9 -149.2 -95.6 -165.6C-68.4 -182.1 -34.2 -186.7 0 -191.2L0 0Z" fill="#55799f"></path><path d="M-95.6 0C-91 -15.4 -86.4 -30.8 -79 -45.6C-71.6 -60.4 -61.4 -74.6 -47.8 -82.8C-34.2 -91 -17.1 -93.3 0 -95.6L0 0Z" fill="#678caa"></path></g><g transform="translate(0, 0)"><path d="M382.5 0C323 37.9 263.5 75.9 239 138C214.6 200.1 225.2 286.5 191.3 331.3C157.3 376 78.6 379.3 0 382.5L0 0Z" fill="#322c67"></path><path d="M286.9 0C242.2 28.4 197.6 56.9 179.3 103.5C160.9 150.1 168.9 214.9 143.4 248.4C117.9 282 59 284.5 0 286.9L0 0Z" fill="#3d5386"></path><path d="M191.3 0C161.5 19 131.7 37.9 119.5 69C107.3 100.1 112.6 143.2 95.6 165.6C78.6 188 39.3 189.6 0 191.3L0 0Z" fill="#55799f"></path><path d="M95.6 0C80.7 9.5 65.9 19 59.8 34.5C53.6 50 56.3 71.6 47.8 82.8C39.3 94 19.7 94.8 0 95.6L0 0Z" fill="#678caa"></path></g></svg>